<mxfile host="drawio-plugin" modified="2022-11-13T21:17:03.501Z" agent="5.0 (Windows NT 6.2; Win64; x64) AppleWebKit/537.36 (KHTML, like Gecko) Chrome/98.0.4758.102 Safari/537.36" etag="gVD-6JpNsx86m0pQ7_1_" version="15.5.4" type="embed"><diagram id="iLYljoPXduV03rMWOebI" name="Page-1"><mxGraphModel dx="1915" dy="-649" grid="1" gridSize="10" guides="1" tooltips="1" connect="1" arrows="1" fold="1" page="1" pageScale="1" pageWidth="827" pageHeight="1169" math="0" shadow="0"><root><mxCell id="0"/><mxCell id="1" parent="0"/><mxCell id="Hhw-8IZuU88P6IJP4M7J-1" value="" style="fontSize=12;html=1;endArrow=ERmany;rounded=0;entryX=0.25;entryY=0;entryDx=0;entryDy=0;elbow=vertical;exitX=1;exitY=0.25;exitDx=0;exitDy=0;" parent="1" source="Hhw-8IZuU88P6IJP4M7J-14" target="Hhw-8IZuU88P6IJP4M7J-9" edge="1"><mxGeometry width="100" height="100" relative="1" as="geometry"><mxPoint x="210" y="1260" as="sourcePoint"/><mxPoint x="542.0799999999999" y="1336.048" as="targetPoint"/><Array as="points"><mxPoint x="317" y="1250"/></Array></mxGeometry></mxCell><mxCell id="Hhw-8IZuU88P6IJP4M7J-2" value="" style="fontSize=12;html=1;endArrow=ERmany;rounded=0;elbow=vertical;exitX=0.5;exitY=0;exitDx=0;exitDy=0;" parent="1" source="Hhw-8IZuU88P6IJP4M7J-16" target="Hhw-8IZuU88P6IJP4M7J-12" edge="1"><mxGeometry width="100" height="100" relative="1" as="geometry"><mxPoint x="430" y="1810" as="sourcePoint"/><mxPoint x="420.00000000000034" y="1760" as="targetPoint"/></mxGeometry></mxCell><mxCell id="Hhw-8IZuU88P6IJP4M7J-3" value="" style="fontSize=12;html=1;endArrow=ERmany;rounded=0;elbow=vertical;exitX=0.75;exitY=1;exitDx=0;exitDy=0;entryX=0.25;entryY=0;entryDx=0;entryDy=0;" parent="1" source="Hhw-8IZuU88P6IJP4M7J-10" target="Hhw-8IZuU88P6IJP4M7J-11" edge="1"><mxGeometry width="100" height="100" relative="1" as="geometry"><mxPoint x="424.2857142857142" y="1500" as="sourcePoint"/><mxPoint x="430" y="1590" as="targetPoint"/></mxGeometry></mxCell><mxCell id="Hhw-8IZuU88P6IJP4M7J-4" value="" style="fontSize=12;html=1;endArrow=ERmany;rounded=0;entryX=0.5;entryY=0;entryDx=0;entryDy=0;" parent="1" source="Hhw-8IZuU88P6IJP4M7J-22" target="Hhw-8IZuU88P6IJP4M7J-23" edge="1"><mxGeometry width="100" height="100" relative="1" as="geometry"><mxPoint x="26.23999999999978" y="2209.27" as="sourcePoint"/><mxPoint x="433.3600000000001" y="2282.808" as="targetPoint"/></mxGeometry></mxCell><mxCell id="Hhw-8IZuU88P6IJP4M7J-5" value="" style="fontSize=12;html=1;endArrow=ERmany;rounded=0;entryX=0.5;entryY=1;entryDx=0;entryDy=0;exitX=0.5;exitY=0;exitDx=0;exitDy=0;" parent="1" source="Hhw-8IZuU88P6IJP4M7J-26" target="Hhw-8IZuU88P6IJP4M7J-24" edge="1"><mxGeometry width="100" height="100" relative="1" as="geometry"><mxPoint x="430" y="2272" as="sourcePoint"/><mxPoint x="457.67999999999984" y="2263.7000000000003" as="targetPoint"/></mxGeometry></mxCell><mxCell id="Hhw-8IZuU88P6IJP4M7J-6" value="" style="fontSize=12;html=1;endArrow=ERmany;rounded=0;entryX=0.5;entryY=1;entryDx=0;entryDy=0;exitX=0.5;exitY=0;exitDx=0;exitDy=0;" parent="1" source="Hhw-8IZuU88P6IJP4M7J-21" target="Hhw-8IZuU88P6IJP4M7J-19" edge="1"><mxGeometry width="100" height="100" relative="1" as="geometry"><mxPoint x="160" y="2280" as="sourcePoint"/><mxPoint x="415" y="2050" as="targetPoint"/></mxGeometry></mxCell><mxCell id="Hhw-8IZuU88P6IJP4M7J-7" value="" style="fontSize=12;html=1;endArrow=ERmany;rounded=0;exitX=0;exitY=0.75;exitDx=0;exitDy=0;entryX=0.5;entryY=0;entryDx=0;entryDy=0;" parent="1" source="Hhw-8IZuU88P6IJP4M7J-10" target="Hhw-8IZuU88P6IJP4M7J-28" edge="1"><mxGeometry width="100" height="100" relative="1" as="geometry"><mxPoint x="270" y="1430" as="sourcePoint"/><mxPoint x="269.74" y="1337.19" as="targetPoint"/><Array as="points"><mxPoint x="255" y="1458"/></Array></mxGeometry></mxCell><mxCell id="-P7Q9ZmcXcWsoEp50lP5-11" value="" style="edgeStyle=orthogonalEdgeStyle;rounded=0;orthogonalLoop=1;jettySize=auto;html=1;startArrow=none;startFill=0;endArrow=ERmany;endFill=0;exitX=1;exitY=0.75;exitDx=0;exitDy=0;entryX=0.151;entryY=0.019;entryDx=0;entryDy=0;entryPerimeter=0;" parent="1" source="Hhw-8IZuU88P6IJP4M7J-10" target="-P7Q9ZmcXcWsoEp50lP5-9" edge="1"><mxGeometry relative="1" as="geometry"/></mxCell><mxCell id="Hhw-8IZuU88P6IJP4M7J-9" value="users" style="swimlane;childLayout=stackLayout;horizontal=1;startSize=30;horizontalStack=0;rounded=1;fontSize=14;fontStyle=0;strokeWidth=2;resizeParent=0;resizeLast=1;shadow=0;dashed=0;align=center;" parent="1" vertex="1"><mxGeometry x="284" y="1300" width="130" height="200" as="geometry"/></mxCell><mxCell id="Hhw-8IZuU88P6IJP4M7J-10" value="us_id&#10;us_name&#10;us_bdate&#10;us_gender&#10;us_email&#10;us_country&#10;us_bio&#10;us_dist&#10;us_ph_id&#10;us_tu_id&#10;us_point" style="align=left;strokeColor=none;fillColor=none;spacingLeft=4;fontSize=12;verticalAlign=top;resizable=0;rotatable=0;part=1;" parent="Hhw-8IZuU88P6IJP4M7J-9" vertex="1"><mxGeometry y="30" width="130" height="170" as="geometry"/></mxCell><mxCell id="Hhw-8IZuU88P6IJP4M7J-11" value="fav_routes" style="swimlane;childLayout=stackLayout;horizontal=1;startSize=30;horizontalStack=0;rounded=1;fontSize=14;fontStyle=0;strokeWidth=2;resizeParent=0;resizeLast=1;shadow=0;dashed=0;align=center;" parent="1" vertex="1"><mxGeometry x="349" y="1520" width="130" height="90" as="geometry"><mxRectangle x="370" y="1500" width="100" height="30" as="alternateBounds"/></mxGeometry></mxCell><mxCell id="Hhw-8IZuU88P6IJP4M7J-12" value="fr_id&#10;fr_us_id&#10;fr_rt_id" style="align=left;strokeColor=none;fillColor=none;spacingLeft=4;fontSize=12;verticalAlign=top;resizable=0;rotatable=0;part=1;" parent="Hhw-8IZuU88P6IJP4M7J-11" vertex="1"><mxGeometry y="30" width="130" height="60" as="geometry"/></mxCell><mxCell id="Hhw-8IZuU88P6IJP4M7J-13" value="type_users" style="swimlane;childLayout=stackLayout;horizontal=1;startSize=30;horizontalStack=0;rounded=1;fontSize=14;fontStyle=0;strokeWidth=2;resizeParent=0;resizeLast=1;shadow=0;dashed=0;align=center;" parent="1" vertex="1"><mxGeometry x="60" y="1205" width="130" height="90" as="geometry"/></mxCell><mxCell id="Hhw-8IZuU88P6IJP4M7J-14" value="tu_id&#10;tu_name" style="align=left;strokeColor=none;fillColor=none;spacingLeft=4;fontSize=12;verticalAlign=top;resizable=0;rotatable=0;part=1;" parent="Hhw-8IZuU88P6IJP4M7J-13" vertex="1"><mxGeometry y="30" width="130" height="60" as="geometry"/></mxCell><mxCell id="Hhw-8IZuU88P6IJP4M7J-16" value="routes" style="swimlane;childLayout=stackLayout;horizontal=1;startSize=30;horizontalStack=0;rounded=1;fontSize=14;fontStyle=0;strokeWidth=2;resizeParent=0;resizeLast=1;shadow=0;dashed=0;align=center;" parent="1" vertex="1"><mxGeometry x="350" y="1650" width="130" height="100" as="geometry"/></mxCell><mxCell id="Hhw-8IZuU88P6IJP4M7J-17" value="rt_id&#10;rt_name&#10;rt_bio&#10;rt_dist" style="align=left;strokeColor=none;fillColor=none;spacingLeft=4;fontSize=12;verticalAlign=top;resizable=0;rotatable=0;part=1;" parent="Hhw-8IZuU88P6IJP4M7J-16" vertex="1"><mxGeometry y="30" width="130" height="70" as="geometry"/></mxCell><mxCell id="Hhw-8IZuU88P6IJP4M7J-18" value="route_spots" style="swimlane;childLayout=stackLayout;horizontal=1;startSize=30;horizontalStack=0;rounded=1;fontSize=14;fontStyle=0;strokeWidth=2;resizeParent=0;resizeLast=1;shadow=0;dashed=0;align=center;" parent="1" vertex="1"><mxGeometry x="350" y="1790" width="130" height="90" as="geometry"/></mxCell><mxCell id="Hhw-8IZuU88P6IJP4M7J-19" value="rs_id&#10;rs_rt_id&#10;rs_sp_id" style="align=left;strokeColor=none;fillColor=none;spacingLeft=4;fontSize=12;verticalAlign=top;resizable=0;rotatable=0;part=1;" parent="Hhw-8IZuU88P6IJP4M7J-18" vertex="1"><mxGeometry y="30" width="130" height="60" as="geometry"/></mxCell><mxCell id="Hhw-8IZuU88P6IJP4M7J-20" value="" style="fontSize=12;html=1;endArrow=ERmany;rounded=0;elbow=vertical;exitX=0.5;exitY=1;exitDx=0;exitDy=0;entryX=0.5;entryY=0;entryDx=0;entryDy=0;" parent="1" source="Hhw-8IZuU88P6IJP4M7J-17" target="Hhw-8IZuU88P6IJP4M7J-18" edge="1"><mxGeometry width="100" height="100" relative="1" as="geometry"><mxPoint x="609.04" y="1850" as="sourcePoint"/><mxPoint x="600" y="1921" as="targetPoint"/><Array as="points"/></mxGeometry></mxCell><mxCell id="-P7Q9ZmcXcWsoEp50lP5-3" value="" style="rounded=0;orthogonalLoop=1;jettySize=auto;html=1;endArrow=ERmany;endFill=0;exitX=1.001;exitY=0.339;exitDx=0;exitDy=0;exitPerimeter=0;entryX=-0.005;entryY=0.165;entryDx=0;entryDy=0;entryPerimeter=0;" parent="1" source="Hhw-8IZuU88P6IJP4M7J-22" target="-P7Q9ZmcXcWsoEp50lP5-2" edge="1"><mxGeometry relative="1" as="geometry"/></mxCell><mxCell id="Hhw-8IZuU88P6IJP4M7J-21" value="spots" style="swimlane;childLayout=stackLayout;horizontal=1;startSize=30;horizontalStack=0;rounded=1;fontSize=14;fontStyle=0;strokeWidth=2;resizeParent=0;resizeLast=1;shadow=0;dashed=0;align=center;" parent="1" vertex="1"><mxGeometry x="350" y="1910" width="130" height="150" as="geometry"/></mxCell><mxCell id="Hhw-8IZuU88P6IJP4M7J-22" value="sp_id&#10;sp_verification&#10;sp_name&#10;sp_location&#10;sp_price&#10;sp_bio&#10;sp_phone&#10;sp_st_id" style="align=left;strokeColor=none;fillColor=none;spacingLeft=4;fontSize=12;verticalAlign=top;resizable=0;rotatable=0;part=1;" parent="Hhw-8IZuU88P6IJP4M7J-21" vertex="1"><mxGeometry y="30" width="130" height="120" as="geometry"/></mxCell><mxCell id="Hhw-8IZuU88P6IJP4M7J-23" value="users_spots_tags" style="swimlane;childLayout=stackLayout;horizontal=1;startSize=30;horizontalStack=0;rounded=1;fontSize=14;fontStyle=0;strokeWidth=2;resizeParent=0;resizeLast=1;shadow=0;dashed=0;align=center;" parent="1" vertex="1"><mxGeometry x="350" y="2090" width="130" height="100" as="geometry"/></mxCell><mxCell id="Hhw-8IZuU88P6IJP4M7J-24" value="ust_id&#10;ust_us_id&#10;ust_sp_id&#10;ust_tg_id" style="align=left;strokeColor=none;fillColor=none;spacingLeft=4;fontSize=12;verticalAlign=top;resizable=0;rotatable=0;part=1;" parent="Hhw-8IZuU88P6IJP4M7J-23" vertex="1"><mxGeometry y="30" width="130" height="70" as="geometry"/></mxCell><mxCell id="Hhw-8IZuU88P6IJP4M7J-25" value="" style="edgeStyle=orthogonalEdgeStyle;rounded=0;orthogonalLoop=1;jettySize=auto;html=1;endArrow=none;endFill=0;startArrow=ERmany;startFill=0;exitX=1;exitY=0.25;exitDx=0;exitDy=0;entryX=0;entryY=0.25;entryDx=0;entryDy=0;" parent="1" source="Hhw-8IZuU88P6IJP4M7J-27" target="Hhw-8IZuU88P6IJP4M7J-39" edge="1"><mxGeometry relative="1" as="geometry"><mxPoint x="789.9999999999998" y="2257" as="sourcePoint"/><mxPoint x="740" y="2362" as="targetPoint"/><Array as="points"><mxPoint x="570" y="2265"/><mxPoint x="570" y="2265"/></Array></mxGeometry></mxCell><mxCell id="Hhw-8IZuU88P6IJP4M7J-26" value="tags" style="swimlane;childLayout=stackLayout;horizontal=1;startSize=30;horizontalStack=0;rounded=1;fontSize=14;fontStyle=0;strokeWidth=2;resizeParent=0;resizeLast=1;shadow=0;dashed=0;align=center;" parent="1" vertex="1"><mxGeometry x="350" y="2220" width="130" height="90" as="geometry"/></mxCell><mxCell id="Hhw-8IZuU88P6IJP4M7J-27" value="tg_id&#10;tg_name&#10;tg_tt_id" style="align=left;strokeColor=none;fillColor=none;spacingLeft=4;fontSize=12;verticalAlign=top;resizable=0;rotatable=0;part=1;" parent="Hhw-8IZuU88P6IJP4M7J-26" vertex="1"><mxGeometry y="30" width="130" height="60" as="geometry"/></mxCell><mxCell id="Hhw-8IZuU88P6IJP4M7J-28" value="route_evaluations" style="swimlane;childLayout=stackLayout;horizontal=1;startSize=30;horizontalStack=0;rounded=1;fontSize=14;fontStyle=0;strokeWidth=2;resizeParent=0;resizeLast=1;shadow=0;dashed=0;align=center;" parent="1" vertex="1"><mxGeometry x="190" y="1510" width="130" height="130" as="geometry"/></mxCell><mxCell id="Hhw-8IZuU88P6IJP4M7J-29" value="re_id&#10;re_rate&#10;re_comment&#10;re_date&#10;re_us_id&#10;re_rt_id" style="align=left;strokeColor=none;fillColor=none;spacingLeft=4;fontSize=12;verticalAlign=top;resizable=0;rotatable=0;part=1;" parent="Hhw-8IZuU88P6IJP4M7J-28" vertex="1"><mxGeometry y="30" width="130" height="100" as="geometry"/></mxCell><mxCell id="Hhw-8IZuU88P6IJP4M7J-30" value="spot_evaluations" style="swimlane;childLayout=stackLayout;horizontal=1;startSize=30;horizontalStack=0;rounded=1;fontSize=14;fontStyle=0;strokeWidth=2;resizeParent=0;resizeLast=1;shadow=0;dashed=0;align=center;" parent="1" vertex="1"><mxGeometry x="80" y="1930" width="130" height="130" as="geometry"/></mxCell><mxCell id="Hhw-8IZuU88P6IJP4M7J-31" value="se_id&#10;se_rate&#10;se_comment&#10;se_date&#10;se_us_id&#10;se_sp_id" style="align=left;strokeColor=none;fillColor=none;spacingLeft=4;fontSize=12;verticalAlign=top;resizable=0;rotatable=0;part=1;" parent="Hhw-8IZuU88P6IJP4M7J-30" vertex="1"><mxGeometry y="30" width="130" height="100" as="geometry"/></mxCell><mxCell id="Hhw-8IZuU88P6IJP4M7J-32" style="edgeStyle=none;rounded=0;orthogonalLoop=1;jettySize=auto;html=1;exitX=0.5;exitY=1;exitDx=0;exitDy=0;entryX=0;entryY=0.25;entryDx=0;entryDy=0;startArrow=ERmany;startFill=0;endArrow=none;endFill=0;" parent="1" source="Hhw-8IZuU88P6IJP4M7J-29" target="Hhw-8IZuU88P6IJP4M7J-16" edge="1"><mxGeometry relative="1" as="geometry"><Array as="points"><mxPoint x="255" y="1675"/></Array></mxGeometry></mxCell><mxCell id="Hhw-8IZuU88P6IJP4M7J-33" style="edgeStyle=none;rounded=0;orthogonalLoop=1;jettySize=auto;html=1;exitX=1;exitY=0.5;exitDx=0;exitDy=0;startArrow=ERmany;startFill=0;endArrow=none;endFill=0;" parent="1" source="Hhw-8IZuU88P6IJP4M7J-31" edge="1"><mxGeometry relative="1" as="geometry"><mxPoint x="350" y="2010" as="targetPoint"/></mxGeometry></mxCell><mxCell id="Hhw-8IZuU88P6IJP4M7J-34" value="fav_spots" style="swimlane;childLayout=stackLayout;horizontal=1;startSize=30;horizontalStack=0;rounded=1;fontSize=14;fontStyle=0;strokeWidth=2;resizeParent=0;resizeLast=1;shadow=0;dashed=0;align=center;" parent="1" vertex="1"><mxGeometry x="140" y="1780" width="130" height="90" as="geometry"/></mxCell><mxCell id="Hhw-8IZuU88P6IJP4M7J-35" value="fs_id&#10;fs_us_id&#10;fs_sp_id" style="align=left;strokeColor=none;fillColor=none;spacingLeft=4;fontSize=12;verticalAlign=top;resizable=0;rotatable=0;part=1;" parent="Hhw-8IZuU88P6IJP4M7J-34" vertex="1"><mxGeometry y="30" width="130" height="60" as="geometry"/></mxCell><mxCell id="Hhw-8IZuU88P6IJP4M7J-36" style="rounded=0;orthogonalLoop=1;jettySize=auto;html=1;startArrow=none;startFill=0;endArrow=ERmany;endFill=0;edgeStyle=orthogonalEdgeStyle;exitX=0;exitY=0.25;exitDx=0;exitDy=0;entryX=0.75;entryY=1;entryDx=0;entryDy=0;" parent="1" source="Hhw-8IZuU88P6IJP4M7J-22" target="Hhw-8IZuU88P6IJP4M7J-35" edge="1"><mxGeometry relative="1" as="geometry"><mxPoint x="320" y="2000" as="sourcePoint"/><mxPoint x="238" y="1910" as="targetPoint"/><Array as="points"><mxPoint x="238" y="1975"/></Array></mxGeometry></mxCell><mxCell id="Hhw-8IZuU88P6IJP4M7J-37" style="edgeStyle=none;rounded=0;orthogonalLoop=1;jettySize=auto;html=1;startArrow=none;startFill=0;endArrow=ERmany;endFill=0;entryX=0.25;entryY=0;entryDx=0;entryDy=0;exitX=0;exitY=0.5;exitDx=0;exitDy=0;" parent="1" source="Hhw-8IZuU88P6IJP4M7J-10" target="Hhw-8IZuU88P6IJP4M7J-34" edge="1"><mxGeometry relative="1" as="geometry"><mxPoint x="640" y="1680" as="targetPoint"/><Array as="points"><mxPoint x="170" y="1415"/></Array><mxPoint x="260" y="1410" as="sourcePoint"/></mxGeometry></mxCell><mxCell id="Hhw-8IZuU88P6IJP4M7J-38" value="tag_types" style="swimlane;childLayout=stackLayout;horizontal=1;startSize=30;horizontalStack=0;rounded=1;fontSize=14;fontStyle=0;strokeWidth=2;resizeParent=0;resizeLast=1;shadow=0;dashed=0;align=center;" parent="1" vertex="1"><mxGeometry x="580" y="2220" width="130" height="90" as="geometry"/></mxCell><mxCell id="Hhw-8IZuU88P6IJP4M7J-39" value="tt_id&#10;tt_name" style="align=left;strokeColor=none;fillColor=none;spacingLeft=4;fontSize=12;verticalAlign=top;resizable=0;rotatable=0;part=1;" parent="Hhw-8IZuU88P6IJP4M7J-38" vertex="1"><mxGeometry y="30" width="130" height="60" as="geometry"/></mxCell><mxCell id="Hhw-8IZuU88P6IJP4M7J-40" style="edgeStyle=orthogonalEdgeStyle;rounded=0;orthogonalLoop=1;jettySize=auto;html=1;entryX=0.75;entryY=0;entryDx=0;entryDy=0;startArrow=ERmany;startFill=0;endArrow=none;endFill=0;exitX=0;exitY=0.25;exitDx=0;exitDy=0;" parent="1" source="Hhw-8IZuU88P6IJP4M7J-43" target="Hhw-8IZuU88P6IJP4M7J-9" edge="1"><mxGeometry relative="1" as="geometry"><mxPoint x="420" y="1260" as="sourcePoint"/><mxPoint x="447.4999999999998" y="1310" as="targetPoint"/><Array as="points"><mxPoint x="382" y="1228"/></Array></mxGeometry></mxCell><mxCell id="Hhw-8IZuU88P6IJP4M7J-41" value="" style="rounded=0;orthogonalLoop=1;jettySize=auto;html=1;startArrow=ERmany;startFill=0;endArrow=none;endFill=0;exitX=1;exitY=0.25;exitDx=0;exitDy=0;" parent="1" source="Hhw-8IZuU88P6IJP4M7J-43" target="Hhw-8IZuU88P6IJP4M7J-45" edge="1"><mxGeometry relative="1" as="geometry"/></mxCell><mxCell id="Hhw-8IZuU88P6IJP4M7J-42" value="user_achievements" style="swimlane;childLayout=stackLayout;horizontal=1;startSize=30;horizontalStack=0;rounded=1;fontSize=14;fontStyle=0;strokeWidth=2;resizeParent=0;resizeLast=1;shadow=0;dashed=0;align=center;" parent="1" vertex="1"><mxGeometry x="440" y="1180" width="130" height="100" as="geometry"/></mxCell><mxCell id="Hhw-8IZuU88P6IJP4M7J-43" value="ua_id&#10;ua_date&#10;ua_us_id&#10;ua_ac_id" style="align=left;strokeColor=none;fillColor=none;spacingLeft=4;fontSize=12;verticalAlign=top;resizable=0;rotatable=0;part=1;" parent="Hhw-8IZuU88P6IJP4M7J-42" vertex="1"><mxGeometry y="30" width="130" height="70" as="geometry"/></mxCell><mxCell id="Hhw-8IZuU88P6IJP4M7J-44" style="edgeStyle=orthogonalEdgeStyle;rounded=0;orthogonalLoop=1;jettySize=auto;html=1;startArrow=none;startFill=0;endArrow=ERmany;endFill=0;entryX=0.25;entryY=0;entryDx=0;entryDy=0;exitX=0;exitY=0.25;exitDx=0;exitDy=0;" parent="1" source="Hhw-8IZuU88P6IJP4M7J-10" target="Hhw-8IZuU88P6IJP4M7J-30" edge="1"><mxGeometry relative="1" as="geometry"><mxPoint x="150" y="1880" as="targetPoint"/><mxPoint x="240" y="1380" as="sourcePoint"/><Array as="points"><mxPoint x="113" y="1380"/></Array></mxGeometry></mxCell><mxCell id="Hhw-8IZuU88P6IJP4M7J-45" value="achievements" style="swimlane;childLayout=stackLayout;horizontal=1;startSize=30;horizontalStack=0;rounded=1;fontSize=14;fontStyle=0;strokeWidth=2;resizeParent=0;resizeLast=1;shadow=0;dashed=0;align=center;" parent="1" vertex="1"><mxGeometry x="616" y="1180" width="130" height="90" as="geometry"/></mxCell><mxCell id="Hhw-8IZuU88P6IJP4M7J-46" value="ac_id&#10;ac_name&#10;ac_limit" style="align=left;strokeColor=none;fillColor=none;spacingLeft=4;fontSize=12;verticalAlign=top;resizable=0;rotatable=0;part=1;" parent="Hhw-8IZuU88P6IJP4M7J-45" vertex="1"><mxGeometry y="30" width="130" height="60" as="geometry"/></mxCell><mxCell id="Hhw-8IZuU88P6IJP4M7J-47" value="" style="edgeStyle=none;rounded=0;orthogonalLoop=1;jettySize=auto;html=1;startArrow=ERmany;startFill=0;endArrow=none;endFill=0;exitX=0.003;exitY=0.215;exitDx=0;exitDy=0;entryX=1;entryY=0;entryDx=0;entryDy=0;exitPerimeter=0;" parent="1" source="Hhw-8IZuU88P6IJP4M7J-49" target="Hhw-8IZuU88P6IJP4M7J-10" edge="1"><mxGeometry relative="1" as="geometry"><mxPoint x="656" y="1395" as="sourcePoint"/><mxPoint x="450" y="1350" as="targetPoint"/></mxGeometry></mxCell><mxCell id="Hhw-8IZuU88P6IJP4M7J-48" value="" style="rounded=0;orthogonalLoop=1;jettySize=auto;html=1;startArrow=none;startFill=0;endArrow=ERmany;endFill=0;entryX=0.75;entryY=0;entryDx=0;entryDy=0;exitX=1.002;exitY=0.821;exitDx=0;exitDy=0;exitPerimeter=0;edgeStyle=orthogonalEdgeStyle;" parent="1" source="Hhw-8IZuU88P6IJP4M7J-50" target="Hhw-8IZuU88P6IJP4M7J-54" edge="1"><mxGeometry relative="1" as="geometry"><mxPoint x="668" y="1370" as="sourcePoint"/></mxGeometry></mxCell><mxCell id="Hhw-8IZuU88P6IJP4M7J-49" value="photos" style="swimlane;childLayout=stackLayout;horizontal=1;startSize=30;horizontalStack=0;rounded=1;fontSize=14;fontStyle=0;strokeWidth=2;resizeParent=0;resizeLast=1;shadow=0;dashed=0;align=center;" parent="1" vertex="1"><mxGeometry x="500" y="1310" width="130" height="100" as="geometry"/></mxCell><mxCell id="Hhw-8IZuU88P6IJP4M7J-50" value="ph_id&#10;ph_foto&#10;ph_tp_id&#10;ph_us_id" style="align=left;strokeColor=none;fillColor=none;spacingLeft=4;fontSize=12;verticalAlign=top;resizable=0;rotatable=0;part=1;" parent="Hhw-8IZuU88P6IJP4M7J-49" vertex="1"><mxGeometry y="30" width="130" height="70" as="geometry"/></mxCell><mxCell id="Hhw-8IZuU88P6IJP4M7J-51" style="rounded=0;orthogonalLoop=1;jettySize=auto;html=1;exitX=0;exitY=0.25;exitDx=0;exitDy=0;entryX=0.999;entryY=0.168;entryDx=0;entryDy=0;endArrow=ERmany;endFill=0;entryPerimeter=0;" parent="1" source="Hhw-8IZuU88P6IJP4M7J-52" target="Hhw-8IZuU88P6IJP4M7J-49" edge="1"><mxGeometry relative="1" as="geometry"/></mxCell><mxCell id="Hhw-8IZuU88P6IJP4M7J-52" value="type_photos" style="swimlane;childLayout=stackLayout;horizontal=1;startSize=30;horizontalStack=0;rounded=1;fontSize=14;fontStyle=0;strokeWidth=2;resizeParent=0;resizeLast=1;shadow=0;dashed=0;align=center;" parent="1" vertex="1"><mxGeometry x="690" y="1305" width="130" height="80" as="geometry"/></mxCell><mxCell id="Hhw-8IZuU88P6IJP4M7J-53" value="tp_id&#10;tp_type" style="align=left;strokeColor=none;fillColor=none;spacingLeft=4;fontSize=12;verticalAlign=top;resizable=0;rotatable=0;part=1;" parent="Hhw-8IZuU88P6IJP4M7J-52" vertex="1"><mxGeometry y="30" width="130" height="50" as="geometry"/></mxCell><mxCell id="Hhw-8IZuU88P6IJP4M7J-54" value="photo_spots" style="swimlane;childLayout=stackLayout;horizontal=1;startSize=30;horizontalStack=0;rounded=1;fontSize=14;fontStyle=0;strokeWidth=2;resizeParent=0;resizeLast=1;shadow=0;dashed=0;align=center;" parent="1" vertex="1"><mxGeometry x="920" y="1590" width="130" height="110" as="geometry"/></mxCell><mxCell id="Hhw-8IZuU88P6IJP4M7J-55" value="ps_id&#10;ps_ph_id&#10;ps_us_id&#10;ps_sp_id" style="align=left;strokeColor=none;fillColor=none;spacingLeft=4;fontSize=12;verticalAlign=top;resizable=0;rotatable=0;part=1;" parent="Hhw-8IZuU88P6IJP4M7J-54" vertex="1"><mxGeometry y="30" width="130" height="80" as="geometry"/></mxCell><mxCell id="Hhw-8IZuU88P6IJP4M7J-56" style="rounded=0;orthogonalLoop=1;jettySize=auto;html=1;entryX=0.25;entryY=0;entryDx=0;entryDy=0;startArrow=none;startFill=0;endArrow=ERmany;endFill=0;exitX=1;exitY=0.5;exitDx=0;exitDy=0;edgeStyle=orthogonalEdgeStyle;" parent="1" source="Hhw-8IZuU88P6IJP4M7J-10" target="Hhw-8IZuU88P6IJP4M7J-54" edge="1"><mxGeometry relative="1" as="geometry"><mxPoint x="420" y="1420" as="sourcePoint"/></mxGeometry></mxCell><mxCell id="Hhw-8IZuU88P6IJP4M7J-57" style="edgeStyle=orthogonalEdgeStyle;rounded=0;orthogonalLoop=1;jettySize=auto;html=1;entryX=0.794;entryY=-0.002;entryDx=0;entryDy=0;startArrow=ERmany;startFill=0;endArrow=none;endFill=0;exitX=0.5;exitY=1;exitDx=0;exitDy=0;entryPerimeter=0;" parent="1" source="Hhw-8IZuU88P6IJP4M7J-55" target="Hhw-8IZuU88P6IJP4M7J-21" edge="1"><mxGeometry relative="1" as="geometry"><Array as="points"><mxPoint x="745" y="1900"/><mxPoint x="453" y="1900"/><mxPoint x="453" y="1920"/></Array></mxGeometry></mxCell><mxCell id="Hhw-8IZuU88P6IJP4M7J-58" style="edgeStyle=orthogonalEdgeStyle;rounded=0;orthogonalLoop=1;jettySize=auto;html=1;startArrow=none;startFill=0;endArrow=ERmany;endFill=0;exitX=0;exitY=0.25;exitDx=0;exitDy=0;entryX=0;entryY=0.5;entryDx=0;entryDy=0;" parent="1" source="Hhw-8IZuU88P6IJP4M7J-9" target="Hhw-8IZuU88P6IJP4M7J-24" edge="1"><mxGeometry relative="1" as="geometry"><mxPoint x="60" y="2140" as="targetPoint"/><Array as="points"><mxPoint x="284" y="1357"/><mxPoint x="60" y="1357"/><mxPoint x="60" y="2155"/></Array><mxPoint x="220" y="1340" as="sourcePoint"/></mxGeometry></mxCell><mxCell id="Hhw-8IZuU88P6IJP4M7J-75" value="" style="edgeStyle=orthogonalEdgeStyle;rounded=0;orthogonalLoop=1;jettySize=auto;html=1;endArrow=ERmany;endFill=0;" parent="1" source="Hhw-8IZuU88P6IJP4M7J-70" target="Hhw-8IZuU88P6IJP4M7J-73" edge="1"><mxGeometry relative="1" as="geometry"/></mxCell><mxCell id="Hhw-8IZuU88P6IJP4M7J-79" value="" style="rounded=0;orthogonalLoop=1;jettySize=auto;html=1;startArrow=none;startFill=0;endArrow=ERmany;endFill=0;exitX=1;exitY=0.403;exitDx=0;exitDy=0;exitPerimeter=0;entryX=0.002;entryY=0.327;entryDx=0;entryDy=0;entryPerimeter=0;" parent="1" source="Hhw-8IZuU88P6IJP4M7J-71" target="Hhw-8IZuU88P6IJP4M7J-78" edge="1"><mxGeometry relative="1" as="geometry"/></mxCell><mxCell id="Hhw-8IZuU88P6IJP4M7J-70" value="groups" style="swimlane;childLayout=stackLayout;horizontal=1;startSize=30;horizontalStack=0;rounded=1;fontSize=14;fontStyle=0;strokeWidth=2;resizeParent=0;resizeLast=1;shadow=0;dashed=0;align=center;" parent="1" vertex="1"><mxGeometry x="-500" y="1300" width="160" height="80" as="geometry"/></mxCell><mxCell id="Hhw-8IZuU88P6IJP4M7J-71" value="gr_id&#10;gr_name&#10;" style="align=left;strokeColor=none;fillColor=none;spacingLeft=4;fontSize=12;verticalAlign=top;resizable=0;rotatable=0;part=1;" parent="Hhw-8IZuU88P6IJP4M7J-70" vertex="1"><mxGeometry y="30" width="160" height="50" as="geometry"/></mxCell><mxCell id="Hhw-8IZuU88P6IJP4M7J-76" style="edgeStyle=orthogonalEdgeStyle;rounded=0;orthogonalLoop=1;jettySize=auto;html=1;entryX=0.25;entryY=0;entryDx=0;entryDy=0;startArrow=ERmany;startFill=0;endArrow=none;endFill=0;" parent="1" source="Hhw-8IZuU88P6IJP4M7J-73" target="Hhw-8IZuU88P6IJP4M7J-21" edge="1"><mxGeometry relative="1" as="geometry"><Array as="points"><mxPoint x="-420" y="1900"/><mxPoint x="383" y="1900"/></Array></mxGeometry></mxCell><mxCell id="Hhw-8IZuU88P6IJP4M7J-73" value="group_spots" style="swimlane;childLayout=stackLayout;horizontal=1;startSize=30;horizontalStack=0;rounded=1;fontSize=14;fontStyle=0;strokeWidth=2;resizeParent=0;resizeLast=1;shadow=0;dashed=0;align=center;" parent="1" vertex="1"><mxGeometry x="-500" y="1800" width="160" height="90" as="geometry"/></mxCell><mxCell id="Hhw-8IZuU88P6IJP4M7J-74" value="gs_id&#10;gs_gr_id&#10;gs_sp_id" style="align=left;strokeColor=none;fillColor=none;spacingLeft=4;fontSize=12;verticalAlign=top;resizable=0;rotatable=0;part=1;" parent="Hhw-8IZuU88P6IJP4M7J-73" vertex="1"><mxGeometry y="30" width="160" height="60" as="geometry"/></mxCell><mxCell id="Hhw-8IZuU88P6IJP4M7J-77" value="user_groups" style="swimlane;childLayout=stackLayout;horizontal=1;startSize=30;horizontalStack=0;rounded=1;fontSize=14;fontStyle=0;strokeWidth=2;resizeParent=0;resizeLast=1;shadow=0;dashed=0;align=center;" parent="1" vertex="1"><mxGeometry x="-120" y="1300" width="160" height="90" as="geometry"/></mxCell><mxCell id="Hhw-8IZuU88P6IJP4M7J-78" value="ug_id&#10;ug_gr_id&#10;ug_us_id" style="align=left;strokeColor=none;fillColor=none;spacingLeft=4;fontSize=12;verticalAlign=top;resizable=0;rotatable=0;part=1;" parent="Hhw-8IZuU88P6IJP4M7J-77" vertex="1"><mxGeometry y="30" width="160" height="60" as="geometry"/></mxCell><mxCell id="Hhw-8IZuU88P6IJP4M7J-80" style="edgeStyle=orthogonalEdgeStyle;rounded=0;orthogonalLoop=1;jettySize=auto;html=1;startArrow=ERmany;startFill=0;endArrow=none;endFill=0;exitX=1.017;exitY=0.146;exitDx=0;exitDy=0;exitPerimeter=0;" parent="1" source="Hhw-8IZuU88P6IJP4M7J-78" edge="1"><mxGeometry relative="1" as="geometry"><mxPoint x="290" y="1339" as="targetPoint"/></mxGeometry></mxCell><mxCell id="Hhw-8IZuU88P6IJP4M7J-90" value="" style="edgeStyle=none;rounded=0;orthogonalLoop=1;jettySize=auto;html=1;startArrow=none;startFill=0;endArrow=ERmany;endFill=0;" parent="1" source="Hhw-8IZuU88P6IJP4M7J-81" target="Hhw-8IZuU88P6IJP4M7J-88" edge="1"><mxGeometry relative="1" as="geometry"/></mxCell><mxCell id="Hhw-8IZuU88P6IJP4M7J-81" value="user_messages" style="swimlane;childLayout=stackLayout;horizontal=1;startSize=30;horizontalStack=0;rounded=1;fontSize=14;fontStyle=0;strokeWidth=2;resizeParent=0;resizeLast=1;shadow=0;dashed=0;align=center;" parent="1" vertex="1"><mxGeometry x="-130" y="1655" width="160" height="90" as="geometry"/></mxCell><mxCell id="Hhw-8IZuU88P6IJP4M7J-82" value="um_id&#10;um_me_id&#10;um_us_id" style="align=left;strokeColor=none;fillColor=none;spacingLeft=4;fontSize=12;verticalAlign=top;resizable=0;rotatable=0;part=1;" parent="Hhw-8IZuU88P6IJP4M7J-81" vertex="1"><mxGeometry y="30" width="160" height="60" as="geometry"/></mxCell><mxCell id="Hhw-8IZuU88P6IJP4M7J-84" value="messages" style="swimlane;childLayout=stackLayout;horizontal=1;startSize=30;horizontalStack=0;rounded=1;fontSize=14;fontStyle=0;strokeWidth=2;resizeParent=0;resizeLast=1;shadow=0;dashed=0;align=center;" parent="1" vertex="1"><mxGeometry x="-380" y="1655" width="160" height="90" as="geometry"><mxRectangle x="-380" y="1655" width="100" height="30" as="alternateBounds"/></mxGeometry></mxCell><mxCell id="Hhw-8IZuU88P6IJP4M7J-85" value="me_id&#10;me_text&#10;me_date" style="align=left;strokeColor=none;fillColor=none;spacingLeft=4;fontSize=12;verticalAlign=top;resizable=0;rotatable=0;part=1;" parent="Hhw-8IZuU88P6IJP4M7J-84" vertex="1"><mxGeometry y="30" width="160" height="60" as="geometry"/></mxCell><mxCell id="Hhw-8IZuU88P6IJP4M7J-87" style="edgeStyle=orthogonalEdgeStyle;rounded=0;orthogonalLoop=1;jettySize=auto;html=1;exitX=0;exitY=0.5;exitDx=0;exitDy=0;entryX=1;entryY=0.25;entryDx=0;entryDy=0;startArrow=none;startFill=0;endArrow=ERmany;endFill=0;" parent="1" source="Hhw-8IZuU88P6IJP4M7J-10" target="Hhw-8IZuU88P6IJP4M7J-82" edge="1"><mxGeometry relative="1" as="geometry"><Array as="points"><mxPoint x="140" y="1410"/><mxPoint x="140" y="1700"/></Array></mxGeometry></mxCell><mxCell id="Hhw-8IZuU88P6IJP4M7J-88" value="user_message_groups" style="swimlane;childLayout=stackLayout;horizontal=1;startSize=30;horizontalStack=0;rounded=1;fontSize=14;fontStyle=0;strokeWidth=2;resizeParent=0;resizeLast=1;shadow=0;dashed=0;align=center;" parent="1" vertex="1"><mxGeometry x="-130" y="1485" width="160" height="105" as="geometry"/></mxCell><mxCell id="Hhw-8IZuU88P6IJP4M7J-89" value="umg_id&#10;umg_um_id&#10;umg_gr_id" style="align=left;strokeColor=none;fillColor=none;spacingLeft=4;fontSize=12;verticalAlign=top;resizable=0;rotatable=0;part=1;" parent="Hhw-8IZuU88P6IJP4M7J-88" vertex="1"><mxGeometry y="30" width="160" height="75" as="geometry"/></mxCell><mxCell id="Hhw-8IZuU88P6IJP4M7J-91" style="edgeStyle=none;rounded=0;orthogonalLoop=1;jettySize=auto;html=1;entryX=0;entryY=0;entryDx=0;entryDy=0;startArrow=none;startFill=0;endArrow=ERmany;endFill=0;exitX=1;exitY=1;exitDx=0;exitDy=0;" parent="1" source="Hhw-8IZuU88P6IJP4M7J-71" target="Hhw-8IZuU88P6IJP4M7J-88" edge="1"><mxGeometry relative="1" as="geometry"><mxPoint x="-340" y="1380" as="sourcePoint"/></mxGeometry></mxCell><mxCell id="Hhw-8IZuU88P6IJP4M7J-92" style="edgeStyle=none;rounded=0;orthogonalLoop=1;jettySize=auto;html=1;entryX=0;entryY=0.5;entryDx=0;entryDy=0;startArrow=none;startFill=0;endArrow=ERmany;endFill=0;" parent="1" source="Hhw-8IZuU88P6IJP4M7J-85" target="Hhw-8IZuU88P6IJP4M7J-82" edge="1"><mxGeometry relative="1" as="geometry"/></mxCell><mxCell id="-P7Q9ZmcXcWsoEp50lP5-6" value="" style="rounded=0;orthogonalLoop=1;jettySize=auto;html=1;startArrow=ERmany;startFill=0;endArrow=none;endFill=0;entryX=0.018;entryY=0.294;entryDx=0;entryDy=0;entryPerimeter=0;" parent="1" source="-P7Q9ZmcXcWsoEp50lP5-1" target="-P7Q9ZmcXcWsoEp50lP5-5" edge="1"><mxGeometry relative="1" as="geometry"/></mxCell><mxCell id="-P7Q9ZmcXcWsoEp50lP5-1" value="spot-schedules" style="swimlane;childLayout=stackLayout;horizontal=1;startSize=30;horizontalStack=0;rounded=1;fontSize=14;fontStyle=0;strokeWidth=2;resizeParent=0;resizeLast=1;shadow=0;dashed=0;align=center;" parent="1" vertex="1"><mxGeometry x="560" y="1941" width="130" height="90" as="geometry"/></mxCell><mxCell id="-P7Q9ZmcXcWsoEp50lP5-2" value="ss_id&#10;ss_sc_id&#10;ss_sp_id" style="align=left;strokeColor=none;fillColor=none;spacingLeft=4;fontSize=12;verticalAlign=top;resizable=0;rotatable=0;part=1;" parent="-P7Q9ZmcXcWsoEp50lP5-1" vertex="1"><mxGeometry y="30" width="130" height="60" as="geometry"/></mxCell><mxCell id="-P7Q9ZmcXcWsoEp50lP5-4" value="schedules" style="swimlane;childLayout=stackLayout;horizontal=1;startSize=30;horizontalStack=0;rounded=1;fontSize=14;fontStyle=0;strokeWidth=2;resizeParent=0;resizeLast=1;shadow=0;dashed=0;align=center;" parent="1" vertex="1"><mxGeometry x="770" y="1920" width="130" height="160" as="geometry"/></mxCell><mxCell id="-P7Q9ZmcXcWsoEp50lP5-5" value="sc_id&#10;sc_mon&#10;sc_tues&#10;sc_wed&#10;sc_thurs&#10;sc_fri&#10;sc_sat&#10;sc_sun" style="align=left;strokeColor=none;fillColor=none;spacingLeft=4;fontSize=12;verticalAlign=top;resizable=0;rotatable=0;part=1;" parent="-P7Q9ZmcXcWsoEp50lP5-4" vertex="1"><mxGeometry y="30" width="130" height="130" as="geometry"/></mxCell><mxCell id="-P7Q9ZmcXcWsoEp50lP5-9" value="owners" style="swimlane;childLayout=stackLayout;horizontal=1;startSize=30;horizontalStack=0;rounded=1;fontSize=14;fontStyle=0;strokeWidth=2;resizeParent=0;resizeLast=1;shadow=0;dashed=0;align=center;" parent="1" vertex="1"><mxGeometry x="520" y="1590" width="130" height="110" as="geometry"/></mxCell><mxCell id="-P7Q9ZmcXcWsoEp50lP5-10" value="ow_id&#10;ow_validation&#10;ow_us_id&#10;ow_sp_id" style="align=left;strokeColor=none;fillColor=none;spacingLeft=4;fontSize=12;verticalAlign=top;resizable=0;rotatable=0;part=1;" parent="-P7Q9ZmcXcWsoEp50lP5-9" vertex="1"><mxGeometry y="30" width="130" height="80" as="geometry"/></mxCell><mxCell id="-P7Q9ZmcXcWsoEp50lP5-12" style="edgeStyle=orthogonalEdgeStyle;rounded=0;orthogonalLoop=1;jettySize=auto;html=1;startArrow=none;startFill=0;endArrow=ERmany;endFill=0;entryX=0.145;entryY=0.99;entryDx=0;entryDy=0;entryPerimeter=0;" parent="1" source="Hhw-8IZuU88P6IJP4M7J-22" target="-P7Q9ZmcXcWsoEp50lP5-10" edge="1"><mxGeometry relative="1" as="geometry"><mxPoint x="540" y="1749.9999999999998" as="targetPoint"/></mxGeometry></mxCell><mxCell id="rKcd2UzN0yO1AcOkGKkl-4" value="spots_type" style="swimlane;childLayout=stackLayout;horizontal=1;startSize=30;horizontalStack=0;rounded=1;fontSize=14;fontStyle=0;strokeWidth=2;resizeParent=0;resizeLast=1;shadow=0;dashed=0;align=center;" parent="1" vertex="1"><mxGeometry x="560" y="2060" width="130" height="80" as="geometry"/></mxCell><mxCell id="rKcd2UzN0yO1AcOkGKkl-5" value="st_id&#10;st_name" style="align=left;strokeColor=none;fillColor=none;spacingLeft=4;fontSize=12;verticalAlign=top;resizable=0;rotatable=0;part=1;" parent="rKcd2UzN0yO1AcOkGKkl-4" vertex="1"><mxGeometry y="30" width="130" height="50" as="geometry"/></mxCell><mxCell id="rKcd2UzN0yO1AcOkGKkl-7" style="rounded=0;orthogonalLoop=1;jettySize=auto;html=1;entryX=1.004;entryY=0.84;entryDx=0;entryDy=0;entryPerimeter=0;exitX=0.006;exitY=0.16;exitDx=0;exitDy=0;exitPerimeter=0;endArrow=ERmany;endFill=0;edgeStyle=orthogonalEdgeStyle;" parent="1" source="rKcd2UzN0yO1AcOkGKkl-5" target="Hhw-8IZuU88P6IJP4M7J-22" edge="1"><mxGeometry relative="1" as="geometry"/></mxCell><mxCell id="H8dkimoEB11Ggjijccp5-12" value="" style="rounded=0;orthogonalLoop=1;jettySize=auto;html=1;startArrow=none;startFill=0;endArrow=ERmany;endFill=0;exitX=0.5;exitY=0;exitDx=0;exitDy=0;" parent="1" source="H8dkimoEB11Ggjijccp5-2" target="H8dkimoEB11Ggjijccp5-10" edge="1"><mxGeometry relative="1" as="geometry"/></mxCell><mxCell id="H8dkimoEB11Ggjijccp5-2" value="spot_request" style="swimlane;childLayout=stackLayout;horizontal=1;startSize=30;horizontalStack=0;rounded=1;fontSize=14;fontStyle=0;strokeWidth=2;resizeParent=0;resizeLast=1;shadow=0;dashed=0;align=center;" parent="1" vertex="1"><mxGeometry x="730" y="1590" width="130" height="110" as="geometry"/></mxCell><mxCell id="H8dkimoEB11Ggjijccp5-3" value="sr_id&#10;sr_text_resquest&#10;sr_validation&#10;sr_ow_id" style="align=left;strokeColor=none;fillColor=none;spacingLeft=4;fontSize=12;verticalAlign=top;resizable=0;rotatable=0;part=1;" parent="H8dkimoEB11Ggjijccp5-2" vertex="1"><mxGeometry y="30" width="130" height="80" as="geometry"/></mxCell><mxCell id="H8dkimoEB11Ggjijccp5-7" style="rounded=0;orthogonalLoop=1;jettySize=auto;html=1;exitX=1.006;exitY=0.305;exitDx=0;exitDy=0;entryX=-0.011;entryY=0.302;entryDx=0;entryDy=0;startArrow=none;startFill=0;endArrow=ERmany;endFill=0;exitPerimeter=0;entryPerimeter=0;" parent="1" source="-P7Q9ZmcXcWsoEp50lP5-10" target="H8dkimoEB11Ggjijccp5-3" edge="1"><mxGeometry relative="1" as="geometry"/></mxCell><mxCell id="H8dkimoEB11Ggjijccp5-10" value="photos_spots_requests" style="swimlane;childLayout=stackLayout;horizontal=1;startSize=30;horizontalStack=0;rounded=1;fontSize=14;fontStyle=0;strokeWidth=2;resizeParent=0;resizeLast=1;shadow=0;dashed=0;align=center;" parent="1" vertex="1"><mxGeometry x="720" y="1460" width="150" height="95" as="geometry"/></mxCell><mxCell id="H8dkimoEB11Ggjijccp5-11" value="psr_id&#10;psr_ph_id&#10;psr_sr_id" style="align=left;strokeColor=none;fillColor=none;spacingLeft=4;fontSize=12;verticalAlign=top;resizable=0;rotatable=0;part=1;" parent="H8dkimoEB11Ggjijccp5-10" vertex="1"><mxGeometry y="30" width="150" height="65" as="geometry"/></mxCell><mxCell id="H8dkimoEB11Ggjijccp5-13" style="edgeStyle=orthogonalEdgeStyle;rounded=0;orthogonalLoop=1;jettySize=auto;html=1;entryX=0.5;entryY=0;entryDx=0;entryDy=0;startArrow=none;startFill=0;endArrow=ERmany;endFill=0;" parent="1" target="H8dkimoEB11Ggjijccp5-10" edge="1"><mxGeometry relative="1" as="geometry"><mxPoint x="610" y="1410" as="sourcePoint"/><Array as="points"><mxPoint x="610" y="1430"/><mxPoint x="795" y="1430"/></Array></mxGeometry></mxCell></root></mxGraphModel></diagram></mxfile>